<svg width="382" height="52" viewBox="0 0 382 52" fill="none" xmlns="http://www.w3.org/2000/svg">
<path d="M6.78125 27.875L26.3438 35.7812V41.9062L0.78125 30.0625V25.5L26.3438 13.6875V19.8125L6.78125 27.875ZM71.3438 48H65.3125L42.4062 12.9375V48H36.375V2.5H42.4062L65.375 37.7188V2.5H71.3438V48ZM88.0312 43.0938H109.594V48H82V2.5H88.0312V43.0938ZM122.438 30.1875V48H116.438V2.5H133.219C138.198 2.5 142.094 3.77083 144.906 6.3125C147.74 8.85417 149.156 12.2188 149.156 16.4062C149.156 20.8229 147.771 24.2292 145 26.625C142.25 29 138.302 30.1875 133.156 30.1875H122.438ZM122.438 25.2812H133.219C136.427 25.2812 138.885 24.5312 140.594 23.0312C142.302 21.5104 143.156 19.3229 143.156 16.4688C143.156 13.7604 142.302 11.5938 140.594 9.96875C138.885 8.34375 136.542 7.5 133.562 7.4375H122.438V25.2812ZM157.062 51.9062H152.094L171.094 2.5H176.031L157.062 51.9062ZM202.75 27.6875L182.094 19.5938V13.6562L208.781 25.4688V30.0312L182.094 41.875V35.875L202.75 27.6875ZM232.5 48V2.5H247.375C252.312 2.5 256.021 3.52083 258.5 5.5625C261 7.60417 262.25 10.625 262.25 14.625C262.25 16.75 261.646 18.6354 260.438 20.2812C259.229 21.9062 257.583 23.1667 255.5 24.0625C257.958 24.75 259.896 26.0625 261.312 28C262.75 29.9167 263.469 32.2083 263.469 34.875C263.469 38.9583 262.146 42.1667 259.5 44.5C256.854 46.8333 253.115 48 248.281 48H232.5ZM238.5 26.7188V43.0938H248.406C251.198 43.0938 253.396 42.375 255 40.9375C256.625 39.4792 257.438 37.4792 257.438 34.9375C257.438 29.4583 254.458 26.7188 248.5 26.7188H238.5ZM238.5 21.9062H247.562C250.188 21.9062 252.281 21.25 253.844 19.9375C255.427 18.625 256.219 16.8438 256.219 14.5938C256.219 12.0938 255.49 10.2812 254.031 9.15625C252.573 8.01042 250.354 7.4375 247.375 7.4375H238.5V21.9062ZM287.812 19.375C286.938 19.2292 285.99 19.1562 284.969 19.1562C281.177 19.1562 278.604 20.7708 277.25 24V48H271.469V14.1875H277.094L277.188 18.0938C279.083 15.0729 281.771 13.5625 285.25 13.5625C286.375 13.5625 287.229 13.7083 287.812 14V19.375ZM312.781 48C312.448 47.3333 312.177 46.1458 311.969 44.4375C309.281 47.2292 306.073 48.625 302.344 48.625C299.01 48.625 296.271 47.6875 294.125 45.8125C292 43.9167 290.938 41.5208 290.938 38.625C290.938 35.1042 292.271 32.375 294.938 30.4375C297.625 28.4792 301.396 27.5 306.25 27.5H311.875V24.8438C311.875 22.8229 311.271 21.2188 310.062 20.0312C308.854 18.8229 307.073 18.2188 304.719 18.2188C302.656 18.2188 300.927 18.7396 299.531 19.7812C298.135 20.8229 297.438 22.0833 297.438 23.5625H291.625C291.625 21.875 292.219 20.25 293.406 18.6875C294.615 17.1042 296.24 15.8542 298.281 14.9375C300.344 14.0208 302.604 13.5625 305.062 13.5625C308.958 13.5625 312.01 14.5417 314.219 16.5C316.427 18.4375 317.573 21.1146 317.656 24.5312V40.0938C317.656 43.1979 318.052 45.6667 318.844 47.5V48H312.781ZM303.188 43.5938C305 43.5938 306.719 43.125 308.344 42.1875C309.969 41.25 311.146 40.0312 311.875 38.5312V31.5938H307.344C300.26 31.5938 296.719 33.6667 296.719 37.8125C296.719 39.625 297.323 41.0417 298.531 42.0625C299.74 43.0833 301.292 43.5938 303.188 43.5938ZM346.406 39.0312C346.406 37.4688 345.812 36.2604 344.625 35.4062C343.458 34.5312 341.406 33.7812 338.469 33.1562C335.552 32.5312 333.229 31.7812 331.5 30.9062C329.792 30.0312 328.521 28.9896 327.688 27.7812C326.875 26.5729 326.469 25.1354 326.469 23.4688C326.469 20.6979 327.635 18.3542 329.969 16.4375C332.323 14.5208 335.323 13.5625 338.969 13.5625C342.802 13.5625 345.906 14.5521 348.281 16.5312C350.677 18.5104 351.875 21.0417 351.875 24.125H346.062C346.062 22.5417 345.385 21.1771 344.031 20.0312C342.698 18.8854 341.01 18.3125 338.969 18.3125C336.865 18.3125 335.219 18.7708 334.031 19.6875C332.844 20.6042 332.25 21.8021 332.25 23.2812C332.25 24.6771 332.802 25.7292 333.906 26.4375C335.01 27.1458 337 27.8229 339.875 28.4688C342.771 29.1146 345.115 29.8854 346.906 30.7812C348.698 31.6771 350.021 32.7604 350.875 34.0312C351.75 35.2812 352.188 36.8125 352.188 38.625C352.188 41.6458 350.979 44.0729 348.562 45.9062C346.146 47.7188 343.01 48.625 339.156 48.625C336.448 48.625 334.052 48.1458 331.969 47.1875C329.885 46.2292 328.25 44.8958 327.062 43.1875C325.896 41.4583 325.312 39.5938 325.312 37.5938H331.094C331.198 39.5312 331.969 41.0729 333.406 42.2188C334.865 43.3438 336.781 43.9062 339.156 43.9062C341.344 43.9062 343.094 43.4688 344.406 42.5938C345.74 41.6979 346.406 40.5104 346.406 39.0312ZM366 48H360.219V14.1875H366V48ZM359.75 5.21875C359.75 4.28125 360.031 3.48958 360.594 2.84375C361.177 2.19792 362.031 1.875 363.156 1.875C364.281 1.875 365.135 2.19792 365.719 2.84375C366.302 3.48958 366.594 4.28125 366.594 5.21875C366.594 6.15625 366.302 6.9375 365.719 7.5625C365.135 8.1875 364.281 8.5 363.156 8.5C362.031 8.5 361.177 8.1875 360.594 7.5625C360.031 6.9375 359.75 6.15625 359.75 5.21875ZM381.562 48H375.781V0H381.562V48Z" fill="#EADA4B"/>
</svg>
