<svg width="455" height="69" viewBox="0 0 455 69" fill="none" xmlns="http://www.w3.org/2000/svg">
<rect width="455" height="69" fill="#6BA368"/>
<path d="M41.7812 38.875L61.3438 46.7812V52.9062L35.7812 41.0625V36.5L61.3438 24.6875V30.8125L41.7812 38.875ZM106.344 59H100.312L77.4062 23.9375V59H71.375V13.5H77.4062L100.375 48.7188V13.5H106.344V59ZM123.031 54.0938H144.594V59H117V13.5H123.031V54.0938ZM157.438 41.1875V59H151.438V13.5H168.219C173.198 13.5 177.094 14.7708 179.906 17.3125C182.74 19.8542 184.156 23.2188 184.156 27.4062C184.156 31.8229 182.771 35.2292 180 37.625C177.25 40 173.302 41.1875 168.156 41.1875H157.438ZM157.438 36.2812H168.219C171.427 36.2812 173.885 35.5312 175.594 34.0312C177.302 32.5104 178.156 30.3229 178.156 27.4688C178.156 24.7604 177.302 22.5938 175.594 20.9688C173.885 19.3438 171.542 18.5 168.562 18.4375H157.438V36.2812ZM192.062 62.9062H187.094L206.094 13.5H211.031L192.062 62.9062ZM237.75 38.6875L217.094 30.5938V24.6562L243.781 36.4688V41.0312L217.094 52.875V46.875L237.75 38.6875ZM267.5 59V13.5H282.375C287.312 13.5 291.021 14.5208 293.5 16.5625C296 18.6042 297.25 21.625 297.25 25.625C297.25 27.75 296.646 29.6354 295.438 31.2812C294.229 32.9062 292.583 34.1667 290.5 35.0625C292.958 35.75 294.896 37.0625 296.312 39C297.75 40.9167 298.469 43.2083 298.469 45.875C298.469 49.9583 297.146 53.1667 294.5 55.5C291.854 57.8333 288.115 59 283.281 59H267.5ZM273.5 37.7188V54.0938H283.406C286.198 54.0938 288.396 53.375 290 51.9375C291.625 50.4792 292.438 48.4792 292.438 45.9375C292.438 40.4583 289.458 37.7188 283.5 37.7188H273.5ZM273.5 32.9062H282.562C285.188 32.9062 287.281 32.25 288.844 30.9375C290.427 29.625 291.219 27.8438 291.219 25.5938C291.219 23.0938 290.49 21.2812 289.031 20.1562C287.573 19.0104 285.354 18.4375 282.375 18.4375H273.5V32.9062ZM322.812 30.375C321.938 30.2292 320.99 30.1562 319.969 30.1562C316.177 30.1562 313.604 31.7708 312.25 35V59H306.469V25.1875H312.094L312.188 29.0938C314.083 26.0729 316.771 24.5625 320.25 24.5625C321.375 24.5625 322.229 24.7083 322.812 25V30.375ZM347.781 59C347.448 58.3333 347.177 57.1458 346.969 55.4375C344.281 58.2292 341.073 59.625 337.344 59.625C334.01 59.625 331.271 58.6875 329.125 56.8125C327 54.9167 325.938 52.5208 325.938 49.625C325.938 46.1042 327.271 43.375 329.938 41.4375C332.625 39.4792 336.396 38.5 341.25 38.5H346.875V35.8438C346.875 33.8229 346.271 32.2188 345.062 31.0312C343.854 29.8229 342.073 29.2188 339.719 29.2188C337.656 29.2188 335.927 29.7396 334.531 30.7812C333.135 31.8229 332.438 33.0833 332.438 34.5625H326.625C326.625 32.875 327.219 31.25 328.406 29.6875C329.615 28.1042 331.24 26.8542 333.281 25.9375C335.344 25.0208 337.604 24.5625 340.062 24.5625C343.958 24.5625 347.01 25.5417 349.219 27.5C351.427 29.4375 352.573 32.1146 352.656 35.5312V51.0938C352.656 54.1979 353.052 56.6667 353.844 58.5V59H347.781ZM338.188 54.5938C340 54.5938 341.719 54.125 343.344 53.1875C344.969 52.25 346.146 51.0312 346.875 49.5312V42.5938H342.344C335.26 42.5938 331.719 44.6667 331.719 48.8125C331.719 50.625 332.323 52.0417 333.531 53.0625C334.74 54.0833 336.292 54.5938 338.188 54.5938ZM381.406 50.0312C381.406 48.4688 380.812 47.2604 379.625 46.4062C378.458 45.5312 376.406 44.7812 373.469 44.1562C370.552 43.5312 368.229 42.7812 366.5 41.9062C364.792 41.0312 363.521 39.9896 362.688 38.7812C361.875 37.5729 361.469 36.1354 361.469 34.4688C361.469 31.6979 362.635 29.3542 364.969 27.4375C367.323 25.5208 370.323 24.5625 373.969 24.5625C377.802 24.5625 380.906 25.5521 383.281 27.5312C385.677 29.5104 386.875 32.0417 386.875 35.125H381.062C381.062 33.5417 380.385 32.1771 379.031 31.0312C377.698 29.8854 376.01 29.3125 373.969 29.3125C371.865 29.3125 370.219 29.7708 369.031 30.6875C367.844 31.6042 367.25 32.8021 367.25 34.2812C367.25 35.6771 367.802 36.7292 368.906 37.4375C370.01 38.1458 372 38.8229 374.875 39.4688C377.771 40.1146 380.115 40.8854 381.906 41.7812C383.698 42.6771 385.021 43.7604 385.875 45.0312C386.75 46.2812 387.188 47.8125 387.188 49.625C387.188 52.6458 385.979 55.0729 383.562 56.9062C381.146 58.7188 378.01 59.625 374.156 59.625C371.448 59.625 369.052 59.1458 366.969 58.1875C364.885 57.2292 363.25 55.8958 362.062 54.1875C360.896 52.4583 360.312 50.5938 360.312 48.5938H366.094C366.198 50.5312 366.969 52.0729 368.406 53.2188C369.865 54.3438 371.781 54.9062 374.156 54.9062C376.344 54.9062 378.094 54.4688 379.406 53.5938C380.74 52.6979 381.406 51.5104 381.406 50.0312ZM401 59H395.219V25.1875H401V59ZM394.75 16.2188C394.75 15.2812 395.031 14.4896 395.594 13.8438C396.177 13.1979 397.031 12.875 398.156 12.875C399.281 12.875 400.135 13.1979 400.719 13.8438C401.302 14.4896 401.594 15.2812 401.594 16.2188C401.594 17.1562 401.302 17.9375 400.719 18.5625C400.135 19.1875 399.281 19.5 398.156 19.5C397.031 19.5 396.177 19.1875 395.594 18.5625C395.031 17.9375 394.75 17.1562 394.75 16.2188ZM416.562 59H410.781V11H416.562V59Z" fill="#EADA4B"/>
</svg>
